{"title":"FakeTaxi.Cathy.Heaven.2014.xXx-ViORiX","uid":10685206,"size":700420965,"categoryP":"porn","categoryS":"movie_clips","magnet":"?xt=urn:btih:e27cf666b27e0edab3894038ec6719db489beb62&amp;dn=FakeTaxi.Cathy.Heaven.2014.xXx-ViORiX&amp;tr=udp%3A%2F%2Ftracker.openbittorrent.com%3A80&amp;tr=udp%3A%2F%2Fopen.demonii.com%3A1337&amp;tr=udp%3A%2F%2Ftracker.coppersurfer.tk%3A6969&amp;tr=udp%3A%2F%2Fexodus.desync.com%3A6969","seeders":1,"leechers":0,"uploader":"iH2OSO4","files":-1,"time":1407073239,"description":"There is no such thing as a free ride, and these fake taxi drivers decided to capitalize. Join their intrepid, dangerous, provocative adventurers as they drive around looking to get sex for fares that they aren't even licensed to give\n\nGeneral\nComplete name  : FakeTaxi.Cathy.Heaven.2014.xXx-ViORiX.mp4\n\nSource :     &lt;a href=&quot; http://vasileturcu.ro/i/9853875.html&quot; rel=&quot;nofollow&quot; target=&quot;_NEW&quot;&gt; http://vasileturcu.ro/i/9853875.html&lt;/a&gt;\n\n\nFormat                           : MPEG-4\nFormat profile                   : Base Media\nCodec ID                         : isom\nFile size                        : 668 MiB\nDuration                         : 36mn 20s\nOverall bit rate                 : 2 570 Kbps\nEncoded date                     : UTC 2014-08-02 06:40:42\nTagged date                      : UTC 2014-08-02 06:40:42\n\nVideo\nID                               : 1\nFormat                           : MPEG-4 Visual\nFormat profile                   : Simple@L1\nFormat settings, BVOP            : No\nFormat settings, QPel            : No\nFormat settings, GMC             : No warppoints\nFormat settings, Matrix          : Default (H.263)\nCodec ID                         : 20\nDuration                         : 36mn 20s\nBit rate mode                    : Variable\nBit rate                         : 2 438 Kbps\nMaximum bit rate                 : 8 029 Kbps\nWidth                            : 856 pixels\nHeight                           : 480 pixels\nDisplay aspect ratio             : 16:9\nFrame rate mode                  : Constant\nFrame rate                       : 24.000 fps\nColor space                      : YUV\nChroma subsampling               : 4:2:0\nBit depth                        : 8 bits\nScan type                        : Progressive\nCompression mode                 : Lossy\nBits/(Pixel*Frame)               : 0.247\nStream size                      : 634 MiB (95%)\nWriting library                  : Lavc53.8.0\nEncoded date                     : UTC 2014-08-02 06:40:42\nTagged date                      : UTC 2014-08-02 06:52:15\n\nAudio\nID                               : 2\nFormat                           : AAC\nFormat/Info                      : Advanced Audio Codec\nFormat profile                   : LC\nCodec ID                         : 40\nDuration                         : 36mn 20s\nBit rate mode                    : Variable\nBit rate                         : 132.3 Kbps\nMaximum bit rate                 : 160 Kbps\nChannel(s)                       : 2 channels\nChannel positions                : Front: L R\nSampling rate                    : 44.1 KHz\nCompression mode                 : Lossy\nStream size                      : 33.7 MiB (5%)\nEncoded date                     : UTC 2014-08-02 06:47:03\nTagged date                      : UTC 2014-08-02 06:52:15\n","torrent":{"xt":"urn:btih:e27cf666b27e0edab3894038ec6719db489beb62","amp;dn":"FakeTaxi.Cathy.Heaven.2014.xXx-ViORiX","amp;tr":["udp%3A%2F%2Ftracker.openbittorrent.com%3A80","udp%3A%2F%2Fopen.demonii.com%3A1337","udp%3A%2F%2Ftracker.coppersurfer.tk%3A6969","udp%3A%2F%2Fexodus.desync.com%3A6969"],"infoHash":"e27cf666b27e0edab3894038ec6719db489beb62","infoHashBuffer":{"type":"Buffer","data":[226,124,246,102,178,126,14,218,179,137,64,56,236,103,25,219,72,155,235,98]},"announce":[],"urlList":[]}}